<?xml version="1.0" standalone="no"?>
<!DOCTYPE svg PUBLIC "-//W3C//DTD SVG 20010904//EN"
 "http://www.w3.org/TR/2001/REC-SVG-20010904/DTD/svg10.dtd">
<svg version="1.0" xmlns="http://www.w3.org/2000/svg"
 width="206.000000pt" height="205.000000pt" viewBox="0 0 206.000000 205.000000"
 preserveAspectRatio="xMidYMid meet">

<g transform="translate(0.000000,205.000000) scale(0.100000,-0.100000)"
fill="#000000" stroke="none">
<path d="M0 1025 l0 -1025 1030 0 1030 0 0 1025 0 1025 -1030 0 -1030 0 0
-1025z m1469 919 c60 -69 267 -427 327 -566 61 -142 76 -216 81 -393 10 -324
-62 -527 -249 -700 -268 -248 -629 -280 -1022 -91 -163 78 -270 178 -377 351
-70 112 -99 212 -106 355 -8 169 13 277 77 406 60 120 118 185 187 208 26 9
58 16 71 16 33 0 62 -27 62 -56 0 -22 -69 -113 -125 -164 -32 -30 -77 -114
-99 -188 -52 -176 -12 -427 89 -554 25 -32 49 -58 53 -58 5 0 16 6 26 13 18
13 18 17 -8 81 -41 101 -39 169 8 274 47 106 48 131 6 178 l-33 38 23 18 c51
41 92 11 125 -94 14 -43 25 -87 25 -97 0 -10 -18 -52 -40 -95 -31 -59 -40 -88
-40 -126 0 -73 14 -102 48 -98 27 3 27 4 27 73 0 79 11 105 83 198 40 52 47
58 71 51 37 -10 59 -7 87 11 28 18 31 37 9 55 -12 10 -22 10 -40 2 -32 -15
-49 6 -40 48 8 35 39 60 76 60 32 0 54 23 46 47 -3 10 -15 43 -26 74 -63 182
-76 600 -20 635 16 10 54 -31 88 -96 17 -32 38 -60 46 -64 8 -3 33 1 57 10 57
20 228 54 272 54 32 0 36 3 45 38 5 20 12 61 15 90 9 68 22 102 40 102 8 0 32
-21 55 -46z m107 -45 c40 -55 205 -342 199 -347 -9 -10 -29 18 -103 150 -44
79 -96 167 -116 197 -50 74 -52 78 -33 62 10 -7 33 -35 53 -62z m-584 -107
c24 -33 34 -52 25 -52 -8 0 -30 25 -50 56 -45 69 -27 66 25 -4z m945 -267 c-2
-5 -16 -12 -32 -13 -24 -3 -27 -1 -17 10 13 16 54 19 49 3z m-1340 -45 c18
-36 -2 -73 -87 -163 -87 -92 -99 -112 -131 -217 -30 -98 -34 -281 -6 -323 10
-15 17 -45 17 -71 0 -25 5 -57 10 -73 10 -26 9 -27 -5 -8 -35 44 -68 177 -73
289 -8 188 26 283 144 409 79 84 109 135 101 169 -7 26 15 18 30 -12z m1367
-31 c-33 -13 -47 -11 -32 4 7 8 21 12 32 9 20 -5 20 -5 0 -13z m-106 -31 c0
-7 12 -41 27 -76 59 -142 69 -200 69 -422 1 -166 -2 -217 -17 -269 -45 -164
-103 -267 -212 -377 -85 -85 -159 -134 -267 -178 -94 -37 -107 -32 -21 8 172
81 314 218 397 383 110 219 123 577 30 835 -38 106 -38 108 -22 108 8 0 15 -6
16 -12z m-1038 -188 c0 -5 -4 -10 -10 -10 -5 0 -10 5 -10 10 0 6 5 10 10 10 6
0 10 -4 10 -10z m-156 -217 c17 -55 22 -81 14 -90 -13 -16 -28 -7 -28 17 0 11
-11 53 -24 94 -22 69 -22 75 -6 66 11 -6 29 -42 44 -87z m693 -949 c-3 -3 -12
-4 -19 -1 -8 3 -5 6 6 6 11 1 17 -2 13 -5z"/>
<path d="M1435 1530 c-48 -7 -72 -20 -103 -53 -30 -31 -27 -71 5 -75 22 -3 22
-4 7 -28 -20 -30 -28 -30 -57 2 -32 34 -61 29 -65 -11 -5 -41 -14 -48 -45 -34
-21 9 -30 9 -42 -1 -56 -46 61 -110 121 -65 10 8 38 15 62 15 32 0 49 6 67 25
32 31 34 84 5 92 -27 7 -25 17 6 42 32 25 92 28 134 6 31 -16 55 -12 64 11 18
46 -70 87 -159 74z"/>
<path d="M996 1449 c-75 -18 -133 -81 -106 -114 19 -22 39 -18 77 15 38 34 80
39 135 15 29 -11 39 -12 53 -1 59 43 -61 108 -159 85z"/>
<path d="M1420 1125 c-71 -32 -110 -87 -110 -155 0 -111 92 -155 190 -90 25
16 57 30 72 30 37 0 61 26 48 51 -22 41 -76 36 -147 -12 -46 -32 -63 -35 -81
-17 -22 22 -14 68 16 98 40 39 92 48 158 25 60 -20 87 -15 82 16 -8 58 -147
90 -228 54z"/>
<path d="M943 1105 c-47 -20 -58 -48 -59 -150 0 -63 -7 -112 -24 -165 -29 -95
-21 -134 33 -169 21 -14 40 -35 43 -47 10 -38 -26 -96 -73 -122 -45 -25 -55
-50 -28 -72 33 -28 139 45 164 113 26 68 0 154 -54 179 -33 15 -33 53 0 153
21 65 23 83 15 127 -13 67 -14 65 14 83 33 22 62 6 83 -43 19 -46 22 -157 4
-200 -21 -50 -10 -62 57 -62 42 0 72 -7 109 -25 68 -34 153 -118 181 -178 18
-38 27 -48 44 -45 38 6 43 31 18 84 -48 99 -187 211 -287 232 l-38 8 3 61 c5
88 -20 167 -68 215 -42 42 -79 48 -137 23z"/>
</g>
</svg>
